<svg xmlns="http://www.w3.org/2000/svg" xmlns:xlink="http://www.w3.org/1999/xlink" viewBox="-20 -20 94 94" version="1.1" x="0px" y="0px" data-icon="true" fill="#644E02"><title>6-new-Smiley</title><desc>Created with Sketch.</desc><g stroke="none" stroke-width="1" fill="#644E02" fill-rule="evenodd"><g fill="#644E02"><path d="M27,54 C12.112,54 0,41.888 0,27 C0,12.112 12.112,0 27,0 C41.888,0 54,12.112 54,27 C54,41.888 41.888,54 27,54 L27,54 Z M27,2 C13.215,2 2,13.215 2,27 C2,40.785 13.215,52 27,52 C40.785,52 52,40.785 52,27 C52,13.215 40.785,2 27,2 L27,2 Z"></path><path d="M9,15 L22,15 L22,17 L9,17 L9,15 Z"></path><path d="M18,39 L36,39 L36,41 L18,41 L18,39 Z"></path><path d="M32,15 L45,15 L45,17 L32,17 L32,15 Z"></path></g></g></svg>