<svg xmlns="http://www.w3.org/2000/svg" xmlns:xlink="http://www.w3.org/1999/xlink" version="1.1" x="0px" y="0px" viewBox="-20 -20 140 140" xml:space="preserve" data-icon="true" fill="#644E02"><path fill="#644E02" d="M38.812,43.691c1.882,0,3.407-1.525,3.407-3.407s-1.525-3.407-3.407-3.407c-1.882,0-3.407,1.525-3.407,3.407  S36.93,43.691,38.812,43.691z M62.059,43.691c1.881,0,3.407-1.525,3.407-3.407s-1.525-3.407-3.407-3.407  c-1.882,0-3.407,1.525-3.407,3.407S60.177,43.691,62.059,43.691z M50.169,10.465c-21.852,0-39.631,17.779-39.631,39.631  c0,21.852,17.779,39.628,39.631,39.628S89.8,71.948,89.8,50.096C89.8,28.243,72.022,10.465,50.169,10.465z M50.169,87.055  c-20.38,0-36.962-16.58-36.962-36.959c0-20.38,16.582-36.962,36.962-36.962c20.38,0,36.962,16.582,36.962,36.962  C87.131,70.476,70.549,87.055,50.169,87.055z M49.893,59.549c-9.589,0-16.846,3.482-20.432,9.803  c-0.365,0.641-0.141,1.457,0.5,1.819c0.639,0.365,1.454,0.141,1.819-0.5c3.138-5.531,9.399-8.453,18.112-8.453  c8.077,0,15.287,3.383,17.94,8.416c0.24,0.453,0.704,0.712,1.181,0.712c0.211,0,0.425-0.049,0.623-0.154  c0.652-0.344,0.902-1.152,0.558-1.804C67.043,63.412,59.075,59.549,49.893,59.549z"></path></svg>