<svg xmlns="http://www.w3.org/2000/svg" xmlns:xlink="http://www.w3.org/1999/xlink" version="1.1" x="0px" y="0px" viewBox="-20 -20 94 94" style="enable-background:new 0 0 54 54;" xml:space="preserve" data-icon="true" fill="#644E02"><metadata></metadata><g><g><path d="M27,0C12.112,0,0,12.112,0,27s12.112,27,27,27s27-12.112,27-27S41.888,0,27,0z M27,52C13.215,52,2,40.785,2,27    S13.215,2,27,2s25,11.215,25,25S40.785,52,27,52z M44,26c-0.553,0-1,0.447-1,1c0,8.822-7.178,16-16,16s-16-7.178-16-16    c0-0.553-0.447-1-1-1s-1,0.447-1,1c0,9.925,8.075,18,18,18s18-8.075,18-18C45,26.447,44.553,26,44,26z M35,25c0.553,0,1-0.447,1-1    v-6c0-0.553-0.447-1-1-1s-1,0.447-1,1v6C34,24.553,34.447,25,35,25z M19,25c0.553,0,1-0.447,1-1v-6c0-0.553-0.447-1-1-1    s-1,0.447-1,1v6C18,24.553,18.447,25,19,25z"></path></g></g></svg>