<svg xmlns="http://www.w3.org/2000/svg" xmlns:xlink="http://www.w3.org/1999/xlink" version="1.1" x="0px" y="0px" viewBox="-20 -20 110 110" style="enable-background:new 0 0 70 70;" xml:space="preserve" data-icon="true" fill="#644E02"><g><g><path d="M35,68C16.8037109,68,2,53.1962891,2,35S16.8037109,2,35,2s33,14.8037109,33,33S53.1962891,68,35,68z M35,4    C17.9067383,4,4,17.9064941,4,35s13.9067383,31,31,31s31-13.9064941,31-31S52.0932617,4,35,4z"></path></g><g><g><g><path d="M51.2915039,24.6914062h-4.75c-0.5522461,0-1-0.4477539-1-1s0.4477539-1,1-1h4.75c0.5522461,0,1,0.4477539,1,1      S51.84375,24.6914062,51.2915039,24.6914062z"></path></g><g><path d="M23.4584961,24.6914062h-4.75c-0.5522461,0-1-0.4477539-1-1s0.4477539-1,1-1h4.75c0.5522461,0,1,0.4477539,1,1      S24.0107422,24.6914062,23.4584961,24.6914062z"></path></g></g><g><path d="M35,59.7248535c-5.453125,0-9.8896484-5.0541992-9.8896484-11.2668457     c0-6.2124023,4.4365234-11.2666016,9.8896484-11.2666016s9.8896484,5.0541992,9.8896484,11.2666016     C44.8896484,54.6706543,40.453125,59.7248535,35,59.7248535z M35,39.1914062     c-4.3505859,0-7.8896484,4.1569824-7.8896484,9.2666016c0,5.1098633,3.5390625,9.2668457,7.8896484,9.2668457     s7.8896484-4.1569824,7.8896484-9.2668457C42.8896484,43.3483887,39.3505859,39.1914062,35,39.1914062z"></path></g></g></g></svg>